<svg width="24" height="24" viewBox="0 0 24 24" fill="none" xmlns="http://www.w3.org/2000/svg">
<path d="M20.652 21.7122C20.9449 22.0051 21.4198 22.0051 21.7127 21.7122C22.0055 21.4193 22.0055 20.9444 21.7127 20.6515L20.652 21.7122ZM16.0684 9.81787C16.0684 13.2697 13.2701 16.0679 9.81836 16.0679V17.5679C14.0986 17.5679 17.5684 14.0981 17.5684 9.81787H16.0684ZM9.81836 16.0679C6.36658 16.0679 3.56836 13.2697 3.56836 9.81787H2.06836C2.06836 14.0981 5.53815 17.5679 9.81836 17.5679V16.0679ZM3.56836 9.81787C3.56836 6.36609 6.36658 3.56787 9.81836 3.56787V2.06787C5.53815 2.06787 2.06836 5.53766 2.06836 9.81787H3.56836ZM9.81836 3.56787C13.2701 3.56787 16.0684 6.36609 16.0684 9.81787H17.5684C17.5684 5.53766 14.0986 2.06787 9.81836 2.06787V3.56787ZM14.288 15.3482L20.652 21.7122L21.7127 20.6515L15.3487 14.2875L14.288 15.3482Z" fill="black"/>
</svg>
